8_ID_stride4.mot
nRows=5
nColumns=38

name 8_ID_stride4.mot
datacolumns 38
datarows 5
range 2.2600000000 2.2800000000
endheader
time	pelvis_tilt_moment	pelvis_list_moment	pelvis_rotation_moment	pelvis_tx_force	pelvis_ty_force	pelvis_tz_force	hip_flexion_r_moment	hip_adduction_r_moment	hip_rotation_r_moment	knee_angle_r_moment	ankle_angle_r_moment	subtalar_angle_r_moment	mtp_angle_r_moment	hip_flexion_l_moment	hip_adduction_l_moment	hip_rotation_l_moment	knee_angle_l_moment	ankle_angle_l_moment	subtalar_angle_l_moment	mtp_angle_l_moment	lumbar_extension_moment	lumbar_bending_moment	lumbar_rotation_moment	arm_flex_r_moment	arm_add_r_moment	arm_rot_r_moment	elbow_flex_r_moment	pro_sup_r_moment	wrist_flex_r_moment	wrist_dev_r_moment	arm_flex_l_moment	arm_add_l_moment	arm_rot_l_moment	elbow_flex_l_moment	pro_sup_l_moment	wrist_flex_l_moment	wrist_dev_l_moment
        2.2600000000	       10.5353196343	       11.5695847979	        5.8330612203	       57.7928036329	      -38.7230525992	        3.8979025110	        3.4554352663	      -69.0887474157	       31.0686079470	        1.3560676566	     -195.5268925811	       46.6337651527	       -0.0419632248	      -10.0261402375	        0.4561306179	       -2.6395273821	       -1.4088115831	        1.9828631396	       -0.0983599677	        0.1150160921	       37.4962960568	        6.2576509883	      -43.3196019206	       -0.9413282531	       -2.9515079382	       -4.0239144422	        4.9989619589	       -0.2277479398	       -0.3469597808	       -0.5168366548	        7.1779913709	        6.8065151130	        4.9674906046	        5.1728266940	        0.0428980972	        0.6259772921	       -0.3251446803	
        2.2650000000	        9.0610523852	       11.1429598722	        1.7702977049	       52.1838906568	      -59.6840691417	        2.8957869316	        5.8336720896	      -58.5874751409	       24.3091046849	       -4.1580381543	     -181.8201400205	       42.3246219657	       -0.0515956323	      -11.6177476203	       -0.0679705671	       -2.3978610515	       -1.4695842162	        2.0760170571	       -0.1505707990	        0.1184666575	       32.0909417642	        4.0546149479	      -41.9352673024	       -0.9665436425	       -2.8887509535	       -3.9040486127	        4.4476007728	       -0.2133944741	       -0.3440852964	       -0.4674502684	        6.9592622667	        6.3058219562	        4.6759250852	        4.6465332018	        0.0459547727	        0.5870110316	       -0.2857401797	
        2.2700000000	        6.3866648089	        9.1134736401	       -1.3031441908	       47.6827249446	      -74.7810059125	        3.4467513554	        7.1633845022	      -48.3122786711	       18.4914134772	       -9.5997890500	     -167.0794453694	       38.1943227372	       -0.0608760840	      -13.3533740812	       -0.1534893207	       -1.9848588163	       -1.7463899938	        2.1770097495	       -0.2173331944	        0.1232211746	       26.1431152187	        3.5445981018	      -39.4751724356	       -1.0231222094	       -2.7124944243	       -3.6537862782	        3.8482070972	       -0.1949341194	       -0.3311585083	       -0.4109620395	        6.5634398593	        5.6749620399	        4.2791712538	        4.0960229880	        0.0464381118	        0.5365916512	       -0.2457969352	
        2.2750000000	        3.4683795713	        4.5447160307	       -2.8889151223	       42.7084567220	      -80.7663739192	        6.4508108278	        6.9643641200	      -39.2927125112	       14.5011575253	      -15.6266495065	     -151.9580999061	       34.4279697315	       -0.0683400314	      -15.1972740280	        0.0069102794	       -1.4343599136	       -2.3234818669	        2.2823015051	       -0.2933451187	        0.1291139799	       20.1950547406	        3.8699435675	      -36.2602843512	       -1.1633891993	       -2.3910269947	       -3.2760852987	        3.1995568252	       -0.1726494382	       -0.3055871431	       -0.3475245503	        5.9855884237	        4.8930023450	        3.7849589439	        3.5295462070	        0.0459631680	        0.4765320959	       -0.2056042650	
        2.2800000000	        0.7665013623	       -0.4330445897	       -3.8273566617	       35.7948277608	      -82.7222004205	       12.2922206154	        5.9061032013	      -31.2361449272	       11.7844386504	      -21.8859495048	     -136.8204185335	       30.9411379510	       -0.0729666687	      -17.0354351145	        0.8043509777	       -0.8063314186	       -3.1427221536	        2.3894439033	       -0.3715004665	        0.1358759303	       14.6487920292	        5.4764078850	      -32.5897014949	       -1.4293122495	       -1.9204808710	       -2.7847138166	        2.5153127622	       -0.1473593441	       -0.2701690527	       -0.2789291894	        5.2579295726	        3.9622235680	        3.2094499323	        2.9591581871	        0.0435788000	        0.4093648536	       -0.1658754393	
